<svg xmlns="http://www.w3.org/2000/svg" xmlns:xlink="http://www.w3.org/1999/xlink" width="150" zoomAndPan="magnify" viewBox="0 0 112.5 112.499997" height="150" preserveAspectRatio="xMidYMid meet" version="1.0"><defs><clipPath id="446fb297fa"><path d="M 5.023438 12.71875 L 107 12.71875 L 107 99.332031 L 5.023438 99.332031 Z M 5.023438 12.71875 " clip-rule="nonzero"/></clipPath><clipPath id="47685d5788"><path d="M 106.96875 51.1875 L 106.96875 49.164062 L 104.957031 48.945312 C 104.414062 48.886719 98.617188 48.308594 91.105469 49.433594 L 91.105469 34.671875 L 88.558594 34.996094 C 84.351562 35.542969 80.445312 36.351562 76.839844 37.390625 C 72.917969 29.070312 66.433594 21.210938 57.417969 13.90625 L 55.996094 12.75 L 54.578125 13.90625 C 45.5625 21.210938 39.078125 29.070312 35.15625 37.390625 C 31.546875 36.351562 27.644531 35.542969 23.433594 34.996094 L 20.886719 34.671875 L 20.886719 49.433594 C 13.375 48.308594 7.578125 48.886719 7.039062 48.945312 L 5.027344 49.164062 L 5.027344 51.1875 C 5.027344 67.792969 9.488281 80.429688 18.296875 88.765625 C 25.582031 95.65625 35.605469 99.25 47.433594 99.25 C 48.363281 99.25 49.308594 99.222656 50.265625 99.183594 L 53.507812 99.183594 L 52.863281 96.402344 C 51.261719 89.472656 48.609375 72.722656 55.996094 59.078125 C 63.382812 72.722656 60.730469 89.472656 59.132812 96.402344 L 58.488281 99.183594 L 61.726562 99.183594 C 62.6875 99.222656 63.632812 99.25 64.5625 99.25 C 76.386719 99.25 86.414062 95.65625 93.699219 88.765625 C 102.507812 80.429688 106.96875 67.792969 106.96875 51.1875 Z M 86.597656 39.839844 L 86.597656 50.296875 C 84.773438 50.71875 82.890625 51.25 81.003906 51.917969 C 80.605469 48.410156 79.792969 44.960938 78.574219 41.585938 C 81.089844 40.882812 83.757812 40.289062 86.597656 39.839844 Z M 25.394531 39.839844 C 28.234375 40.289062 30.90625 40.882812 33.417969 41.585938 C 32.203125 44.964844 31.390625 48.410156 30.988281 51.921875 C 29.101562 51.25 27.222656 50.722656 25.394531 50.296875 Z M 21.394531 85.484375 C 13.890625 78.390625 9.917969 67.574219 9.5625 53.3125 C 11.902344 53.238281 16.054688 53.277344 20.886719 54.082031 L 20.886719 67.46875 C 20.886719 77.707031 31.03125 87.941406 41.019531 94.324219 C 34.421875 93.457031 27.261719 91.042969 21.394531 85.484375 Z M 25.394531 67.472656 L 25.394531 55.03125 C 27.144531 55.480469 28.925781 56.039062 30.707031 56.730469 C 30.617188 70.273438 36.46875 81.828125 41.605469 89.339844 C 32.789062 83.238281 25.394531 74.621094 25.394531 67.472656 Z M 47.050781 89.128906 C 42.257812 82.679688 35.824219 71.695312 35.257812 58.820312 C 39.882812 61.3125 44.226562 64.90625 47.503906 70.070312 C 46.234375 76.972656 46.421875 83.714844 47.050781 89.128906 Z M 48.929688 64.300781 C 45.015625 59.414062 40.246094 56.039062 35.34375 53.71875 C 35.644531 50.066406 36.433594 46.484375 37.71875 42.972656 C 44.582031 45.496094 50.003906 49.101562 53.933594 53.777344 C 51.6875 57.125 50.070312 60.691406 48.929688 64.300781 Z M 55.996094 49.316406 C 51.761719 44.832031 46.238281 41.328125 39.488281 38.820312 C 42.929688 31.71875 48.441406 24.957031 55.996094 18.578125 C 63.554688 24.957031 69.066406 31.71875 72.507812 38.820312 C 65.757812 41.328125 60.234375 44.832031 55.996094 49.316406 Z M 58.058594 53.777344 C 61.988281 49.101562 67.414062 45.496094 74.277344 42.972656 C 75.5625 46.480469 76.347656 50.066406 76.648438 53.71875 C 71.746094 56.039062 66.976562 59.414062 63.0625 64.300781 C 61.925781 60.691406 60.308594 57.125 58.058594 53.777344 Z M 64.488281 70.070312 C 67.769531 64.910156 72.113281 61.3125 76.738281 58.820312 C 76.171875 71.699219 69.734375 82.679688 64.945312 89.128906 C 65.570312 83.714844 65.761719 76.972656 64.488281 70.070312 Z M 81.285156 56.730469 C 83.066406 56.039062 84.851562 55.480469 86.597656 55.03125 L 86.597656 67.472656 C 86.597656 74.621094 79.207031 83.238281 70.390625 89.339844 C 75.527344 81.828125 81.375 70.273438 81.285156 56.730469 Z M 90.597656 85.484375 C 84.734375 91.042969 77.570312 93.460938 70.972656 94.324219 C 80.964844 87.941406 91.105469 77.710938 91.105469 67.46875 L 91.105469 54.082031 C 95.941406 53.277344 100.09375 53.238281 102.433594 53.3125 C 102.078125 67.574219 98.105469 78.390625 90.597656 85.484375 Z M 90.597656 85.484375 " clip-rule="nonzero"/></clipPath></defs><g clip-path="url(#446fb297fa)"><g clip-path="url(#47685d5788)"><path fill="#000000" d="M 5.027344 12.75 L 5.027344 99.25 L 106.96875 99.25 L 106.96875 12.75 Z M 5.027344 12.75 " fill-opacity="1" fill-rule="nonzero"/></g></g></svg>